<svg xmlns="http://www.w3.org/2000/svg" width="320" height="480" viewBox="0 0 320 480" fill="none">
  <defs>
    <linearGradient id="ember-bg" x1="36" y1="24" x2="282" y2="468" gradientUnits="userSpaceOnUse">
      <stop stop-color="#3F1D2E"/>
      <stop offset="0.48" stop-color="#9F1239"/>
      <stop offset="1" stop-color="#FB7185"/>
    </linearGradient>
  </defs>
  <rect width="320" height="480" rx="28" fill="url(#ember-bg)"/>
  <circle cx="246" cy="98" r="56" fill="white" fill-opacity="0.16"/>
  <circle cx="246" cy="98" r="32" fill="white" fill-opacity="0.18"/>
  <path d="M46 384C98 338 142 312 188 314C226 316 252 334 286 372V432H46V384Z" fill="white" fill-opacity="0.13"/>
  <path d="M58 332L128 236L180 286L250 176L286 214V432H58V332Z" fill="white" fill-opacity="0.18"/>
  <rect x="42" y="50" width="88" height="22" rx="11" fill="white" fill-opacity="0.18"/>
  <rect x="42" y="92" width="168" height="18" rx="9" fill="white" fill-opacity="0.92"/>
  <rect x="42" y="120" width="126" height="12" rx="6" fill="white" fill-opacity="0.56"/>
  <rect x="42" y="154" width="82" height="18" rx="9" fill="#FDE68A" fill-opacity="0.88"/>
</svg>
