<svg xmlns="http://www.w3.org/2000/svg" width="320" height="480" viewBox="0 0 320 480" fill="none">
  <defs>
    <linearGradient id="aurora-bg" x1="28" y1="24" x2="286" y2="456" gradientUnits="userSpaceOnUse">
      <stop stop-color="#0F172A"/>
      <stop offset="0.52" stop-color="#1D4ED8"/>
      <stop offset="1" stop-color="#38BDF8"/>
    </linearGradient>
    <radialGradient id="aurora-glow" cx="0" cy="0" r="1" gradientUnits="userSpaceOnUse" gradientTransform="translate(228 116) rotate(90) scale(124)">
      <stop stop-color="white" stop-opacity="0.34"/>
      <stop offset="1" stop-color="white" stop-opacity="0"/>
    </radialGradient>
  </defs>
  <rect width="320" height="480" rx="28" fill="url(#aurora-bg)"/>
  <circle cx="228" cy="116" r="124" fill="url(#aurora-glow)"/>
  <path d="M34 342C72 308 112 286 154 294C202 302 224 346 270 352V432H34V342Z" fill="white" fill-opacity="0.13"/>
  <path d="M34 390C88 354 126 364 176 376C216 386 246 378 286 352V432H34V390Z" fill="white" fill-opacity="0.18"/>
  <rect x="42" y="48" width="92" height="22" rx="11" fill="white" fill-opacity="0.18"/>
  <rect x="42" y="88" width="154" height="18" rx="9" fill="white" fill-opacity="0.9"/>
  <rect x="42" y="116" width="120" height="12" rx="6" fill="white" fill-opacity="0.58"/>
  <rect x="42" y="152" width="76" height="18" rx="9" fill="#FDE68A" fill-opacity="0.86"/>
</svg>
